<?xml version="1.0" encoding="UTF-8" standalone="no"?>
<svg width="1260px" height="355px" viewBox="0 0 1260 355" version="1.1" xmlns="http://www.w3.org/2000/svg" xmlns:xlink="http://www.w3.org/1999/xlink" xmlns:sketch="http://www.bohemiancoding.com/sketch/ns">
    <!-- Generator: Sketch 3.5.1 (25234) - http://www.bohemiancoding.com/sketch -->
    <title>Artboard 1</title>
    <desc>Created with Sketch.</desc>
    <defs></defs>
    <g id="Page-1" stroke="none" stroke-width="1" fill="none" fill-rule="evenodd" sketch:type="MSPage">
        <g id="Artboard-1" sketch:type="MSArtboardGroup">
            <path d="M1,128.000524 C1,108.117984 11.2393808,104.443692 23.8801783,119.805772 L50.1198217,151.694228 C62.7561952,167.050932 73,195.623235 73,215.497786 L73,318.002214 C73,337.883242 56.8866226,354 37,354 L37,354 C17.117749,354 1,337.882324 1,317.999476 L1,128.000524 Z" id="Rectangle-1" fill="#222222" sketch:type="MSShapeGroup"></path>
            <path d="M132.128605,261.89238 C204.477908,261.89238 263.128605,203.241682 263.128605,130.89238 C263.128605,58.5430777 204.477908,-0.107620057 132.128605,-0.107620057 C59.7793032,-0.107620057 1.12860543,58.5430777 1.12860543,130.89238 C1.12860543,203.241682 59.7793032,261.89238 132.128605,261.89238 Z" id="Oval-5" stroke="#FED100" stroke-width="14" sketch:type="MSShapeGroup"></path>
            <circle id="Oval-1" stroke="#222222" stroke-width="60" sketch:type="MSShapeGroup" cx="657" cy="223" r="101"></circle>
            <g id="Group" sketch:type="MSLayerGroup" transform="translate(159.205349, 194.542686) rotate(-23.000000) translate(-159.205349, -194.542686) translate(57.705349, 24.042686)">
                <path d="M101.079495,202.609269 C156.860255,202.609269 202.079495,157.390029 202.079495,101.609269 C202.079495,45.8285091 156.860255,0.609268872 101.079495,0.609268872 C45.2987354,0.609268872 0.0794951465,45.8285091 0.0794951465,101.609269 C0.0794951465,157.390029 45.2987354,202.609269 101.079495,202.609269 Z" id="Oval-1" stroke="#FFFFFF" stroke-width="60" sketch:type="MSShapeGroup"></path>
                <rect id="Rectangle-1" fill="#FFFFFF" sketch:type="MSShapeGroup" x="65" y="203" width="72" height="138" rx="200"></rect>
            </g>
            <circle id="Oval-1" stroke="#222222" stroke-width="60" sketch:type="MSShapeGroup" cx="386" cy="223" r="101"></circle>
            <g id="Group-2" sketch:type="MSLayerGroup" transform="translate(796.000000, 92.000000)">
                <rect id="Rectangle-1" fill="#222222" sketch:type="MSShapeGroup" x="404" y="96" width="60" height="166" rx="200"></rect>
                <rect id="Rectangle-1" fill="#222222" sketch:type="MSShapeGroup" x="0" y="0" width="60" height="262" rx="200"></rect>
                <path d="M232,131 C232,75.2192403 186.78076,30 131,30 C75.2192403,30 30,75.2192403 30,131" id="Oval-1" stroke="#222222" stroke-width="60" sketch:type="MSShapeGroup"></path>
                <path d="M434,131 C434,75.2192403 388.78076,30 333,30 C277.21924,30 232,75.2192403 232,131" id="Oval-1" stroke="#222222" stroke-width="60" sketch:type="MSShapeGroup"></path>
                <rect id="Rectangle-1" fill="#222222" sketch:type="MSShapeGroup" x="202" y="96" width="60" height="166" rx="200"></rect>
            </g>
        </g>
    </g>
</svg>